<svg width="100%" height="100%" viewBox="0 0 88 904" fill="none" preserveAspectRatio="none" xmlns="http://www.w3.org/2000/svg">
<rect width="80" height="904" fill="#2A2A2D"/>
<path fill-rule="evenodd" clip-rule="evenodd" d="M-340.499 26.3644C-356.526 -3.36888 -382.429 -38.7419 -364.313 -67.5971C-345.549 -97.482 -291.519 -90.5658 -256.708 -107.093C-229.538 -119.992 -214.361 -151.28 -183.344 -153.514C-152.344 -155.748 -132.253 -123.953 -101.876 -118.249C-55.5175 -109.543 11.6102 -145.848 37.4845 -112.044C62.7531 -79.0318 -8.75196 -44.3812 -15.5223 -5.43059C-21.1631 27.0214 27.6474 64.9462 2.40396 89.7777C-23.9478 115.7 -77.1905 84.2988 -116.05 93.4561C-147.874 100.956 -165.38 137.579 -198.402 137.099C-231.376 136.619 -254.479 110.023 -278.776 91.0881C-303.361 71.9293 -326.611 52.1288 -340.499 26.3644Z" stroke="#B7C4FF"/>
<path opacity="0.95875" fill-rule="evenodd" clip-rule="evenodd" d="M-334.897 25.5931C-349.692 -4.59699 -374.126 -40.7161 -354.834 -69.0168C-334.854 -98.3275 -281.142 -89.8143 -245.672 -105.3C-217.988 -117.386 -201.534 -148.205 -170.445 -149.519C-139.372 -150.832 -120.6 -118.462 -90.4762 -111.86C-44.5034 -101.786 24.0756 -136.08 48.5447 -101.53C72.4411 -67.7887 -0.444486 -35.2782 -8.81159 3.44804C-15.7827 35.7131 31.4394 75.0613 5.19072 99.1296C-22.2104 124.255 -74.1301 91.2952 -113.342 99.2954C-145.455 105.847 -164.455 141.93 -197.438 140.471C-230.372 139.014 -252.367 111.75 -275.872 92.1065C-299.655 72.2308 -322.077 51.7533 -334.897 25.5931Z" stroke="#B7C4FF"/>
<path opacity="0.9175" fill-rule="evenodd" clip-rule="evenodd" d="M-329.267 24.9874C-342.812 -5.62275 -365.747 -42.4439 -345.303 -70.1557C-324.131 -98.8564 -270.801 -88.7567 -234.716 -103.182C-206.553 -114.44 -188.842 -144.752 -157.718 -145.144C-126.61 -145.536 -109.18 -112.629 -79.3456 -105.139C-33.8148 -93.7083 36.1318 -125.949 59.1661 -90.6949C81.6612 -56.2662 7.48378 -25.9354 -2.46986 12.5192C-10.7628 44.558 34.8133 85.2817 7.59143 108.557C-20.8257 132.855 -71.3591 98.3772 -110.876 105.21C-143.239 110.807 -163.71 146.304 -196.613 143.869C-229.467 141.437 -250.329 113.537 -273.011 93.2095C-295.963 72.6411 -317.529 51.5116 -329.267 24.9874Z" stroke="#B7C4FF"/>
<path opacity="0.87625" fill-rule="evenodd" clip-rule="evenodd" d="M-323.615 24.5489C-335.894 -6.44402 -357.301 -43.9224 -335.732 -71.0115C-313.392 -99.0673 -260.51 -87.3933 -223.854 -100.74C-195.246 -111.157 -176.3 -140.926 -145.178 -140.396C-114.073 -139.865 -98.0064 -106.462 -68.4979 -98.0919C-23.4647 -85.3189 47.7644 -115.467 69.3357 -79.5519C90.4021 -44.4775 15.0233 -16.3635 3.49522 21.7728C-6.10948 53.5463 37.7651 95.5958 9.60322 118.051C-19.7952 141.492 -68.8808 105.537 -108.654 111.195C-141.227 115.829 -163.146 150.698 -195.928 147.289C-228.662 143.885 -248.364 115.384 -270.198 94.3965C-292.29 73.1606 -312.975 51.4048 -323.615 24.5489Z" stroke="#B7C4FF"/>
<path opacity="0.835" fill-rule="evenodd" clip-rule="evenodd" d="M-317.949 24.2782C-328.947 -7.05972 -348.8 -45.1496 -326.13 -71.583C-302.652 -98.9597 -250.281 -85.7257 -213.099 -97.9783C-184.08 -107.541 -163.922 -136.73 -132.841 -135.278C-101.777 -133.826 -87.0931 -99.9666 -57.9466 -90.7276C-13.4658 -76.6278 58.9591 -104.647 79.0411 -68.1142C98.6531 -32.437 22.1648 -6.57386 9.07631 31.1976C-1.82842 62.6671 40.2912 105.991 11.2236 127.598C-19.1203 150.153 -66.6983 112.766 -106.68 117.242C-139.424 120.907 -162.762 155.106 -195.384 150.727C-227.959 146.355 -246.477 117.288 -267.435 95.6663C-288.641 73.7886 -308.419 51.4331 -317.949 24.2782Z" stroke="#B7C4FF"/>
<path opacity="0.79375" fill-rule="evenodd" clip-rule="evenodd" d="M-312.275 24.1756C-321.978 -7.46914 -340.254 -46.1242 -316.512 -71.8696C-291.922 -98.5339 -240.127 -83.756 -202.465 -94.8992C-173.07 -103.596 -151.725 -132.17 -120.723 -129.798C-89.737 -127.426 -76.4534 -93.1522 -47.7043 -83.0551C-3.83013 -67.6457 69.7021 -93.5012 88.2705 -56.3959C106.404 -20.1592 28.8995 3.42144 14.2666 40.782C2.07512 71.9092 42.3885 116.455 12.4505 137.187C-18.8019 158.829 -64.8143 120.055 -104.956 123.343C-137.83 126.036 -162.559 159.522 -194.982 154.18C-227.357 148.845 -244.669 119.247 -264.726 97.0171C-285.019 74.5243 -303.867 51.5963 -312.275 24.1756Z" stroke="#B7C4FF"/>
<path opacity="0.7525" fill-rule="evenodd" clip-rule="evenodd" d="M-306.6 24.2411C-314.997 -7.6719 -331.673 -46.845 -306.887 -71.8712C-281.216 -97.7905 -230.061 -81.4867 -191.963 -91.507C-162.229 -99.3276 -139.722 -127.252 -108.836 -123.962C-77.967 -120.674 -66.1001 -86.0267 -37.7836 -75.0838C5.43057 -58.3837 79.9807 -82.0443 97.0127 -44.4113C113.646 -7.65932 35.2194 13.6102 19.0599 50.5143C5.59654 81.2613 44.0545 126.975 13.2827 146.807C-18.8402 167.51 -63.2309 127.396 -103.483 129.492C-136.448 131.21 -162.539 163.942 -194.722 157.642C-226.858 151.351 -242.943 121.258 -262.074 98.4474C-281.431 75.3669 -299.324 51.8943 -306.6 24.2411Z" stroke="#B7C4FF"/>
<path opacity="0.71125" fill-rule="evenodd" clip-rule="evenodd" d="M-300.932 24.4748C-308.012 -7.66758 -323.068 -47.311 -297.268 -71.5874C-270.548 -96.7302 -220.093 -78.9203 -181.607 -87.8056C-151.569 -94.7402 -127.929 -121.98 -97.197 -117.777C-66.4818 -113.576 -56.0461 -78.5987 -28.1965 -66.8233C14.3049 -48.8527 89.7821 -70.2897 105.257 -32.1749C120.37 5.04763 41.1167 23.98 23.4503 60.3828C8.73141 90.712 45.2872 137.537 13.719 156.446C-19.2352 176.184 -61.9503 134.779 -102.264 135.681C-135.28 136.421 -162.7 168.36 -194.604 161.11C-226.462 153.871 -241.301 123.319 -259.482 99.9554C-277.879 76.3154 -294.797 52.3268 -300.932 24.4748Z" stroke="#B7C4FF"/>
<path opacity="0.67" fill-rule="evenodd" clip-rule="evenodd" d="M-295.276 24.8764C-301.031 -7.45624 -314.448 -47.5217 -287.667 -71.0187C-259.929 -95.3544 -210.238 -76.0601 -171.409 -83.7995C-141.105 -89.8397 -116.359 -116.363 -85.8192 -111.251C-55.2953 -106.143 -46.3035 -70.8773 -18.9549 -58.2837C22.7821 -39.0646 99.0943 -58.2518 112.993 -19.7016C126.567 17.9461 46.5841 34.5183 27.4323 70.3754C11.4759 100.25 46.0849 148.13 13.7588 166.091C-19.9866 184.841 -60.9739 142.195 -101.3 141.903C-134.326 141.663 -163.042 172.77 -194.629 164.579C-226.17 156.4 -239.744 125.428 -256.954 101.539C-274.368 77.3685 -290.29 52.8932 -295.276 24.8764Z" stroke="#B7C4FF"/>
<path opacity="0.62875" fill-rule="evenodd" clip-rule="evenodd" d="M-289.641 25.4453C-294.063 -7.03817 -305.825 -47.4768 -278.094 -70.1659C-249.374 -93.6647 -200.505 -72.9096 -161.383 -79.4936C-130.849 -84.6321 -105.028 -110.406 -74.7164 -104.392C-44.4211 -98.3822 -36.8842 -62.8719 -10.0698 -49.4755C30.8518 -29.0312 107.906 -45.9452 120.212 -7.00668C132.23 31.0204 51.615 45.2122 31.0012 80.4799C13.8267 109.863 46.4467 158.74 13.4021 175.732C-21.0933 193.471 -60.3028 149.636 -100.592 148.148C-133.588 146.93 -163.565 177.168 -194.797 168.046C-225.982 158.937 -238.275 127.581 -254.493 103.197C-270.902 78.525 -285.809 53.5928 -289.641 25.4453Z" stroke="#B7C4FF"/>
<path opacity="0.5875" fill-rule="evenodd" clip-rule="evenodd" d="M-284.032 26.1809C-287.116 -6.41389 -297.21 -47.1765 -268.563 -69.0299C-238.894 -91.6633 -190.909 -69.4727 -151.539 -74.8933C-120.813 -79.1238 -93.9483 -104.116 -63.9023 -97.2085C-33.8724 -90.3043 -27.7996 -54.5922 -1.55214 -40.4094C38.5043 -18.7648 116.207 -33.3851 126.905 5.89444C137.353 44.2545 56.2035 56.0487 34.1528 90.684C15.781 119.541 46.3724 169.354 12.6495 185.357C-22.554 202.062 -59.938 157.092 -100.142 154.412C-133.068 152.216 -164.269 181.547 -195.107 171.505C-225.899 161.478 -236.896 129.776 -252.101 104.927C-267.487 79.7836 -281.359 54.4248 -284.032 26.1809Z" stroke="#B7C4FF"/>
<path opacity="0.54625" fill-rule="evenodd" clip-rule="evenodd" d="M-278.457 27.0822C-280.2 -5.58412 -288.612 -46.621 -259.084 -67.6122C-228.503 -89.3526 -181.459 -65.7535 -141.891 -70.004C-111.009 -73.3214 -83.1338 -97.5027 -53.39 -89.7086C-23.6622 -81.9186 -19.0609 -46.0484 6.58767 -31.0963C45.7301 -8.27794 123.986 -20.5866 133.064 18.986C141.928 57.6323 60.3437 67.0145 36.8829 100.975C17.3363 129.27 45.8617 179.959 11.5017 194.953C-24.3669 210.605 -59.8799 164.555 -99.9492 160.684C-132.765 157.515 -165.153 185.903 -195.558 174.953C-225.92 164.019 -235.607 132.011 -249.782 106.727C-264.125 81.1425 -276.947 55.3881 -278.457 27.0822Z" stroke="#B7C4FF"/>
<path opacity="0.505" fill-rule="evenodd" clip-rule="evenodd" d="M-272.922 28.1481C-273.322 -4.54992 -280.042 -45.8111 -249.67 -65.9145C-218.214 -86.7354 -172.168 -61.7565 -132.449 -64.8319C-101.45 -67.2321 -72.5977 -90.5726 -43.1924 -81.9018C-13.8028 -73.2356 -10.6785 -37.2508 14.3399 -21.5478C52.5206 2.41669 131.235 -7.56539 138.68 32.2521C145.951 71.1376 64.0308 78.0964 39.1885 111.341C18.4909 139.039 44.9156 190.543 9.9603 204.51C-26.5298 219.089 -60.1285 172.014 -100.014 166.959C-132.68 162.819 -166.215 190.23 -196.152 178.386C-226.045 166.559 -234.411 134.283 -247.538 108.594C-260.821 82.6003 -272.576 56.4816 -272.922 28.1481Z" stroke="#B7C4FF"/>
<path opacity="0.46375" fill-rule="evenodd" clip-rule="evenodd" d="M-267.435 29.3775C-266.49 -3.31247 -271.51 -44.7476 -240.33 -63.9387C-208.038 -83.8147 -163.047 -57.4865 -123.226 -59.383C-92.1465 -60.8631 -62.3529 -83.3344 -33.3219 -73.7974C-4.3064 -64.2656 -2.66296 -28.2101 21.6948 -11.7753C58.8674 13.3061 137.944 5.66275 143.748 45.6767C149.417 84.7539 67.2601 89.2807 41.0666 121.769C19.2432 148.837 43.535 201.093 8.02698 214.015C-29.0401 227.504 -60.6836 179.462 -100.337 173.228C-132.812 168.122 -167.454 194.523 -196.886 181.799C-226.275 169.093 -233.309 136.589 -245.373 110.526C-257.579 84.1551 -268.253 57.7039 -267.435 29.3775Z" stroke="#B7C4FF"/>
<path opacity="0.4225" fill-rule="evenodd" clip-rule="evenodd" d="M-262.001 30.7687C-259.713 -1.87334 -263.028 -43.432 -231.078 -61.6875C-197.988 -80.5944 -154.107 -52.9489 -114.232 -53.6641C-83.1108 -54.2223 -52.4118 -75.797 -23.7904 -65.4055C4.81563 -55.0196 4.9762 -18.9374 28.6436 -1.79076C64.7628 24.3769 144.105 19.0816 148.262 59.2432C152.321 98.4646 70.0278 100.554 42.515 132.246C19.5924 158.651 41.7217 211.595 5.70424 223.457C-31.8946 235.839 -61.5443 186.889 -100.918 179.483C-133.163 173.418 -168.868 198.776 -197.76 185.188C-226.609 171.619 -232.303 138.927 -243.288 112.522C-254.402 85.805 -263.984 59.0536 -262.001 30.7687Z" stroke="#B7C4FF"/>
<path opacity="0.38125" fill-rule="evenodd" clip-rule="evenodd" d="M-256.628 32.3201C-253 -0.2343 -254.604 -41.8659 -221.924 -59.1634C-188.077 -77.0782 -145.358 -48.1491 -105.479 -47.6823C-74.3536 -47.3179 -42.7865 -67.9697 -14.6096 -56.7363C13.5521 -45.509 12.2296 -9.44403 35.1779 8.39355C70.1995 35.6156 149.711 32.6749 152.215 72.9351C154.659 112.253 72.3305 111.902 43.5318 142.76C19.538 168.469 39.4779 222.037 2.99479 232.824C-35.0901 244.085 -62.7099 194.286 -101.755 185.718C-133.732 178.701 -170.457 202.985 -198.772 188.549C-227.046 174.133 -231.393 141.292 -241.286 114.578C-251.296 87.5481 -259.772 60.529 -256.628 32.3201Z" stroke="#B7C4FF"/>
<path opacity="0.34" fill-rule="evenodd" clip-rule="evenodd" d="M-251.322 34.0298C-246.358 1.60275 -246.25 -40.051 -212.879 -56.3695C-178.317 -73.2703 -136.813 -43.093 -96.9764 -41.4446C-65.8855 -40.158 -33.4888 -59.8617 -5.79081 -47.8002C21.8923 -35.7452 19.0884 0.258607 41.2896 18.7654C75.171 47.0087 154.755 46.4261 155.602 86.736C156.429 126.102 74.1653 123.312 44.116 153.298C19.0802 178.28 36.8062 232.406 -0.0979566 242.105C-38.6225 252.23 -64.1787 201.643 -102.848 191.923C-134.517 183.963 -172.218 207.145 -199.922 191.878C-227.587 176.633 -230.581 143.683 -239.37 116.692C-248.263 89.3821 -255.623 62.1284 -251.322 34.0298Z" stroke="#B7C4FF"/>
<path opacity="0.29875" fill-rule="evenodd" clip-rule="evenodd" d="M-246.089 35.8957C-239.796 3.6355 -237.976 -37.9897 -203.954 -53.3093C-168.718 -69.1756 -128.48 -37.7867 -88.7359 -34.9587C-57.7167 -32.7516 -24.53 -51.4833 2.65538 -38.6083C29.8262 -25.7402 25.5442 10.1586 46.9712 29.312C79.6713 58.5422 159.231 60.3183 158.421 100.629C157.629 139.996 75.5301 134.769 44.2667 163.846C18.2193 188.071 33.71 242.689 -3.5703 251.289C-42.4875 260.267 -65.949 208.953 -104.195 198.093C-135.517 189.199 -174.148 211.249 -201.209 195.171C-228.23 179.116 -229.868 146.097 -237.542 118.862C-245.307 91.305 -251.543 63.8497 -246.089 35.8957Z" stroke="#B7C4FF"/>
<path opacity="0.2575" fill-rule="evenodd" clip-rule="evenodd" d="M-240.937 37.9155C-233.321 5.86142 -229.792 -35.6845 -195.161 -49.9865C-159.294 -64.799 -120.371 -32.2367 -80.767 -28.2327C-49.8574 -25.1077 -15.921 -42.8445 10.7187 -29.1717C37.344 -15.5063 31.5892 20.2437 52.216 40.0205C83.6947 70.2019 163.133 74.3347 160.666 114.597C158.258 153.916 76.4232 146.26 43.9838 174.392C16.9566 197.831 30.1931 252.875 -7.418 260.365C-46.6804 268.183 -68.0187 216.206 -105.795 204.219C-136.733 194.402 -176.247 215.294 -202.63 198.424C-228.974 181.578 -229.254 148.53 -235.805 121.085C-242.432 93.3142 -247.536 65.6909 -240.937 37.9155Z" stroke="#B7C4FF"/>
<path opacity="0.21625" fill-rule="evenodd" clip-rule="evenodd" d="M-235.87 40.0867C-226.942 8.27792 -221.707 -33.1381 -186.51 -46.4051C-150.056 -60.1457 -112.495 -26.4498 -73.0793 -21.2746C-42.317 -17.2355 -7.67235 -33.9557 18.3892 -19.5019C44.4367 -5.05574 37.216 30.502 57.0175 50.8779C87.2366 81.9739 166.457 88.4582 162.337 128.622C158.313 167.847 76.8435 157.77 43.2676 184.924C15.2936 207.548 26.2597 262.95 -11.6363 269.321C-51.1962 275.971 -70.3852 223.393 -107.646 210.294C-138.161 199.566 -178.51 219.274 -204.183 201.632C-229.819 184.016 -228.741 150.981 -234.159 123.357C-239.642 95.4074 -243.607 67.6497 -235.87 40.0867Z" stroke="#B7C4FF"/>
<path opacity="0.175" fill-rule="evenodd" clip-rule="evenodd" d="M-230.896 42.4069C-220.666 10.882 -213.732 -30.3536 -178.011 -42.5695C-141.015 -55.2214 -104.861 -20.4329 -65.6824 -14.0928C-35.1049 -9.14452 0.205905 -24.8279 25.6575 -9.61054C51.0954 5.59868 42.4178 40.9207 61.3696 61.8711C90.2923 93.8436 169.198 102.672 163.43 142.689C157.796 181.77 76.7904 169.286 42.1189 195.428C13.2321 217.209 21.9145 272.903 -16.2203 278.146C-56.0293 283.62 -73.0457 230.505 -109.745 216.31C-139.801 204.685 -180.935 223.185 -205.868 204.793C-230.764 186.428 -228.329 153.444 -232.609 125.677C-236.939 97.582 -239.761 69.7237 -230.896 42.4069Z" stroke="#B7C4FF"/>
<path opacity="0.13375" fill-rule="evenodd" clip-rule="evenodd" d="M-226.02 44.873C-214.501 13.6705 -205.876 -27.3345 -169.675 -38.4845C-132.181 -50.0323 -97.4791 -14.1936 -58.5851 -6.69627C-28.2295 -0.844862 7.70432 -15.4723 32.515 0.490068C57.3123 16.4439 47.1882 51.4873 65.2675 72.9865C92.8585 105.797 171.353 116.958 163.944 156.78C156.708 195.67 76.2641 180.793 40.5393 205.892C10.7749 226.803 17.163 282.72 -21.164 286.831C-61.1739 291.122 -75.9968 237.535 -112.091 222.261C-141.651 209.752 -183.52 227.022 -207.681 207.902C-231.808 188.81 -228.018 155.919 -231.154 128.042C-234.327 99.8354 -236.002 71.9105 -226.02 44.873Z" stroke="#B7C4FF"/>
<path opacity="0.0925" fill-rule="evenodd" clip-rule="evenodd" d="M-221.249 47.482C-208.454 16.6399 -198.149 -24.0846 -161.511 -34.1549C-123.566 -44.5845 -90.3583 -7.73931 -51.796 0.90604C-21.6995 7.65345 14.8137 -5.90021 38.9532 10.7877C63.0797 27.4666 51.5215 62.1887 68.7061 84.2106C94.9318 117.818 172.92 131.299 163.878 170.877C155.048 209.529 75.2652 192.277 38.5306 216.302C7.92485 236.319 12.0109 292.391 -26.4617 295.363C-66.6235 298.466 -79.235 244.472 -114.679 228.138C-143.707 214.761 -186.26 230.779 -209.621 210.955C-232.948 191.16 -227.81 158.401 -229.798 130.448C-231.809 102.165 -232.336 74.2072 -221.249 47.482Z" stroke="#B7C4FF"/>
<path opacity="0.05125" fill-rule="evenodd" clip-rule="evenodd" d="M-216.587 50.2309C-202.533 19.7868 -190.56 -20.6075 -153.531 -29.5859C-115.18 -38.8847 -83.5071 -1.07784 -45.3237 8.70502C-15.5228 16.3402 21.5252 3.87687 44.9641 21.27C68.3904 38.6537 55.4122 73.0121 71.6813 95.5298C96.5097 129.894 173.896 145.678 163.233 184.964C152.82 223.331 73.7949 203.725 36.0952 226.646C4.68543 245.744 6.46444 301.903 -32.1069 303.733C-72.3718 305.644 -82.7565 251.31 -117.508 233.935C-145.968 219.706 -189.154 234.453 -211.686 213.949C-234.185 193.474 -227.703 160.888 -228.541 132.893C-229.389 104.567 -228.766 76.6113 -216.587 50.2309Z" stroke="#B7C4FF"/>
<path opacity="0.01" fill-rule="evenodd" clip-rule="evenodd" d="M-212.042 53.1154C-196.744 23.1063 -183.119 -16.9086 -145.744 -24.7842C-107.034 -32.9408 -76.9339 5.78163 -39.1758 16.6901C-9.70685 25.2038 27.8308 13.8459 50.5406 31.923C73.2381 49.9904 58.8557 83.9432 74.1894 106.929C97.5903 142.009 174.281 160.076 162.01 199.022C150.026 237.057 71.8549 215.121 33.2361 236.912C1.06054 255.067 0.530319 311.244 -38.0928 311.93C-78.4116 312.647 -86.5568 258.038 -120.573 239.644C-148.431 224.58 -192.197 238.039 -213.872 216.879C-235.516 195.75 -227.699 163.376 -227.386 135.373C-227.069 107.039 -225.297 79.1188 -212.042 53.1154Z" stroke="#B7C4FF"/>

</svg>
