 <svg width="100%" height="100%" viewBox="0 0 1544 904" fill="none" preserveAspectRatio="none" xmlns="http://www.w3.org/2000/svg">
        <g opacity="0.6">
            <path fill-rule="evenodd" clip-rule="evenodd" d="M-1328.83 298.291C-1424.57 191.659 -1562.75 72.3776 -1536.05 -68.4166C-1508.4 -214.235 -1307.43 -245.173 -1205.33 -352.894C-1125.65 -436.966 -1112.56 -584.679 -1005.29 -628.398C-898.083 -672.094 -785.218 -561.342 -669.86 -571.138C-493.812 -586.089 -302.722 -812.361 -166.691 -699.613C-33.844 -589.504 -242.642 -365.303 -215.863 -194.847C-193.551 -52.8303 29.3388 51.7426 -27.9318 183.601C-87.7169 321.248 -317.837 248.881 -443.932 330.253C-547.199 396.894 -561.593 569.51 -679.531 604.093C-797.296 638.626 -914.074 552.961 -1025.1 500.67C-1137.44 447.762 -1245.87 390.688 -1328.83 298.291Z" stroke="#B7C4FF" stroke-width="3" />
            <path opacity="0.95875" fill-rule="evenodd" clip-rule="evenodd" d="M-1309.94 288.855C-1401.9 178.947 -1535.83 54.9156 -1504.23 -84.8609C-1471.51 -229.626 -1269.58 -253.531 -1163.79 -357.623C-1081.22 -438.863 -1062.98 -586.029 -954.256 -625.978C-845.586 -665.906 -736.655 -551.282 -621.026 -557.047C-444.562 -565.844 -245.693 -785.31 -113.679 -667.883C15.2441 -553.205 -201.252 -336.427 -180.437 -165.14C-163.095 -22.4315 56.0093 89.8565 -5.82823 219.636C-70.3808 355.113 -297.836 274.759 -426.693 351.68C-532.223 414.677 -552.633 586.686 -671.705 617.132C-790.604 647.533 -904.321 557.844 -1013.45 501.711C-1123.88 444.914 -1230.26 384.092 -1309.94 288.855Z" stroke="#B7C4FF" stroke-width="3" />
            <path opacity="0.9175" fill-rule="evenodd" clip-rule="evenodd" d="M-1290.73 280.082C-1378.8 167.032 -1508.32 38.4015 -1471.86 -100.187C-1434.1 -243.721 -1231.47 -260.566 -1122.1 -360.902C-1036.75 -439.211 -1013.39 -585.65 -903.335 -621.781C-793.337 -657.892 -688.473 -539.536 -572.713 -541.262C-396.05 -543.895 -189.643 -756.287 -61.8076 -634.324C63.0351 -515.217 -160.894 -306.126 -146.07 -134.218C-133.719 9.00938 81.3329 128.876 15.0038 256.418C-54.2375 389.559 -278.749 301.316 -410.213 373.694C-517.877 432.969 -544.277 604.161 -664.34 630.433C-784.227 656.666 -894.745 563.063 -1001.85 503.156C-1110.23 442.54 -1214.42 378.041 -1290.73 280.082Z" stroke="#B7C4FF" stroke-width="3" />
            <path opacity="0.87625" fill-rule="evenodd" clip-rule="evenodd" d="M-1271.22 271.984C-1355.29 155.93 -1480.25 22.8576 -1438.97 -114.374C-1396.23 -256.503 -1193.13 -266.265 -1080.33 -362.724C-992.296 -438.006 -963.841 -583.541 -852.591 -615.809C-741.4 -648.059 -640.731 -526.116 -524.981 -523.8C-348.334 -520.267 -134.639 -725.326 -11.1386 -598.976C109.471 -475.584 -121.619 -274.436 -112.803 -102.114C-105.458 41.4563 105.279 168.755 34.5395 293.904C-39.3062 424.548 -260.602 328.523 -394.511 396.269C-504.178 451.75 -536.537 621.917 -657.443 643.983C-778.173 666.016 -885.357 568.613 -990.309 505.004C-1096.5 440.643 -1198.38 372.548 -1271.22 271.984Z" stroke="#B7C4FF" stroke-width="3" />
            <path opacity="0.835" fill-rule="evenodd" clip-rule="evenodd" d="M-1251.45 264.573C-1331.41 145.655 -1451.65 8.30299 -1405.61 -127.405C-1357.93 -267.955 -1154.62 -270.624 -1038.52 -363.086C-947.912 -435.251 -914.395 -579.704 -802.086 -608.07C-689.838 -636.42 -593.486 -511.037 -477.887 -504.684C-301.471 -494.987 -80.7504 -692.463 38.2656 -561.88C154.496 -434.354 -83.4736 -241.394 -80.6773 -68.8698C-78.3475 74.8698 127.819 209.445 52.7548 332.05C-25.6053 460.037 -243.415 356.348 -379.607 419.379C-491.144 470.999 -529.421 639.932 -651.024 657.765C-772.449 675.572 -876.168 574.488 -978.837 507.255C-1082.72 439.226 -1182.16 367.617 -1251.45 264.573Z" stroke="#B7C4FF" stroke-width="3" />
            <path opacity="0.79375" fill-rule="evenodd" clip-rule="evenodd" d="M-1231.43 257.856C-1307.19 136.22 -1422.56 -5.24476 -1371.82 -139.263C-1319.26 -278.064 -1115.98 -273.635 -996.724 -361.99C-903.651 -430.948 -865.113 -574.144 -751.883 -598.572C-638.714 -622.988 -546.796 -494.319 -431.489 -483.935C-255.519 -468.088 -28.0411 -657.741 86.3451 -523.084C198.054 -391.579 -46.5047 -207.041 -49.7311 -34.5243C-52.4192 109.209 148.925 250.898 69.6279 370.808C-13.1512 495.982 -227.209 384.755 -365.518 442.994C-478.788 490.69 -522.939 658.185 -645.089 671.763C-767.062 685.321 -867.191 580.679 -967.45 509.904C-1068.9 438.291 -1165.77 363.256 -1231.43 257.856Z" stroke="#B7C4FF" stroke-width="3" />
            <path opacity="0.7525" fill-rule="evenodd" clip-rule="evenodd" d="M-1211.18 251.842C-1282.66 127.636 -1393.02 -17.7692 -1337.63 -149.935C-1280.26 -286.817 -1077.25 -275.297 -954.99 -359.436C-859.567 -425.103 -816.055 -566.867 -702.042 -587.329C-588.089 -607.78 -500.718 -475.982 -385.844 -461.58C-210.534 -439.601 23.4243 -621.199 133.041 -482.632C240.092 -347.309 -10.7573 -171.419 -20.0024 0.880231C-27.7051 144.432 168.572 293.061 85.1379 410.131C-1.95929 532.34 -212.005 413.71 -352.262 467.087C-467.128 510.801 -517.097 676.653 -639.647 685.96C-762.019 695.253 -858.434 587.18 -956.163 512.949C-1055.05 437.839 -1149.25 359.469 -1211.18 251.842Z" stroke="#B7C4FF" stroke-width="3" />
            <path opacity="0.71125" fill-rule="evenodd" clip-rule="evenodd" d="M-1190.74 246.538C-1257.84 119.913 -1363.06 -29.2548 -1303.09 -159.407C-1240.98 -294.204 -1038.5 -275.605 -913.371 -355.426C-815.714 -417.724 -767.281 -557.882 -652.623 -574.353C-538.026 -590.815 -455.307 -456.048 -341.006 -437.645C-166.57 -409.561 73.5833 -582.884 178.298 -440.576C280.561 -301.599 23.7253 -134.57 8.47271 37.3008C-4.23514 180.497 186.735 335.885 99.2664 449.972C7.95716 569.067 -197.821 443.178 -339.855 491.628C-456.177 531.307 -511.903 695.314 -634.704 700.338C-757.325 705.355 -849.91 593.982 -944.988 516.386C-1041.19 437.871 -1132.6 356.261 -1190.74 246.538Z" stroke="#B7C4FF" stroke-width="3" />
            <path opacity="0.67" fill-rule="evenodd" clip-rule="evenodd" d="M-1170.12 241.951C-1232.76 113.061 -1332.71 -39.6878 -1268.24 -167.668C-1201.46 -300.215 -999.752 -274.561 -871.917 -349.967C-772.145 -408.818 -718.851 -547.201 -603.687 -559.66C-488.586 -572.112 -410.621 -434.541 -297.031 -412.16C-123.682 -378.006 122.374 -542.842 222.058 -396.966C319.409 -254.505 56.9008 -96.5411 35.6592 74.693C17.9617 217.358 203.393 379.317 111.996 490.281C16.5856 606.117 -184.673 473.124 -328.312 516.587C-445.948 552.182 -507.364 714.144 -630.265 714.879C-752.986 715.614 -841.628 601.078 -933.94 520.211C-1027.34 438.387 -1115.85 353.636 -1170.12 241.951Z" stroke="#B7C4FF" stroke-width="3" />
            <path opacity="0.62875" fill-rule="evenodd" clip-rule="evenodd" d="M-1149.36 238.086C-1207.46 107.089 -1302.02 -49.0555 -1233.12 -174.707C-1161.76 -304.843 -961.068 -272.166 -830.678 -343.064C-728.914 -398.397 -670.822 -534.836 -555.294 -543.268C-439.828 -551.696 -366.712 -411.487 -253.973 -385.157C-81.9204 -344.973 169.738 -501.121 264.271 -351.855C356.59 -206.084 88.729 -57.3774 61.5244 113.011C38.8586 254.972 218.524 423.303 123.31 531.01C23.9159 643.446 -172.579 503.51 -317.647 541.933C-436.453 573.401 -503.485 733.121 -626.336 729.567C-749.009 726.018 -833.599 608.459 -923.033 524.419C-1013.52 439.385 -1099.02 351.597 -1149.36 238.086Z" stroke="#B7C4FF" stroke-width="3" />
            <path opacity="0.5875" fill-rule="evenodd" clip-rule="evenodd" d="M-1128.48 234.948C-1181.97 102.003 -1271.02 -57.3463 -1197.78 -180.517C-1121.92 -308.083 -922.49 -268.421 -789.706 -334.726C-686.072 -386.474 -623.254 -520.803 -507.502 -525.198C-391.813 -529.591 -323.634 -386.915 -211.883 -356.666C-41.3376 -310.503 215.617 -457.773 304.883 -305.299C392.059 -156.394 119.171 -17.1267 86.0364 152.209C58.4302 293.292 232.112 467.791 133.197 572.109C29.939 681.008 -161.553 534.299 -307.873 567.637C-427.705 594.939 -500.27 752.223 -622.923 744.383C-745.396 736.555 -825.833 616.115 -912.279 529.005C-999.748 440.865 -1082.12 350.147 -1128.48 234.948Z" stroke="#B7C4FF" stroke-width="3" />
            <path opacity="0.54625" fill-rule="evenodd" clip-rule="evenodd" d="M-1107.5 232.541C-1156.32 97.8096 -1239.75 -64.5503 -1162.25 -185.09C-1081.99 -309.93 -884.067 -263.333 -749.05 -324.963C-643.673 -373.063 -576.205 -505.117 -460.37 -505.47C-344.598 -505.823 -281.44 -360.855 -170.813 -326.724C-1.98249 -274.637 259.956 -412.85 343.845 -257.354C425.771 -105.497 148.19 24.1619 109.166 192.238C76.6524 332.271 244.138 512.725 141.643 613.528C34.6475 718.757 -151.607 565.455 -299.002 593.665C-419.714 616.769 -497.724 771.424 -620.028 759.309C-742.154 747.211 -818.338 624.038 -901.692 533.964C-986.031 442.825 -1065.19 349.287 -1107.5 232.541Z" stroke="#B7C4FF" stroke-width="3" />
            <path opacity="0.505" fill-rule="evenodd" clip-rule="evenodd" d="M-1086.44 230.867C-1130.53 94.5143 -1208.25 -70.6586 -1126.59 -188.42C-1042.02 -310.383 -845.845 -256.907 -708.759 -313.787C-601.768 -358.181 -529.732 -487.8 -413.956 -484.11C-298.241 -480.422 -240.182 -333.338 -130.812 -295.367C36.097 -237.42 302.699 -366.407 381.111 -208.078C457.687 -53.4543 175.75 66.4381 130.884 233.05C93.5031 371.863 254.589 558.053 148.638 655.217C38.0357 756.647 -142.755 596.938 -291.045 619.988C-412.49 638.865 -495.849 790.703 -617.656 774.327C-739.286 757.975 -811.125 632.217 -891.284 539.289C-972.392 445.262 -1048.24 349.019 -1086.44 230.867Z" stroke="#B7C4FF" stroke-width="3" />
            <path opacity="0.46375" fill-rule="evenodd" clip-rule="evenodd" d="M-1065.34 229.929C-1104.65 92.1208 -1176.56 -75.6638 -1090.84 -190.503C-1002.06 -309.441 -807.87 -249.151 -668.882 -301.212C-560.407 -341.845 -483.892 -468.871 -368.315 -461.143C-252.8 -453.419 -199.908 -304.398 -91.931 -262.634C72.8544 -198.896 343.796 -318.501 416.634 -157.531C487.768 -0.329574 201.817 109.65 151.164 274.594C108.962 412.019 263.452 603.717 154.175 697.124C40.0995 794.633 -135.008 628.712 -284.012 646.572C-406.041 661.199 -494.649 810.036 -615.81 789.419C-736.795 768.831 -804.201 640.644 -881.069 544.975C-958.845 448.174 -1031.29 349.343 -1065.34 229.929Z" stroke="#B7C4FF" stroke-width="3" />
            <path opacity="0.4225" fill-rule="evenodd" clip-rule="evenodd" d="M-1044.23 229.728C-1078.7 90.6322 -1144.71 -79.5598 -1055.03 -191.338C-962.154 -307.105 -770.189 -240.074 -629.469 -287.253C-519.642 -324.075 -438.741 -448.354 -323.503 -436.597C-208.328 -424.846 -160.67 -274.071 -54.2157 -228.563C108.245 -159.113 383.195 -269.189 450.372 -105.776C515.976 53.8126 226.361 153.746 169.982 316.822C123.01 452.69 270.716 649.663 158.245 739.199C40.8363 832.668 -128.374 660.736 -277.91 673.385C-400.376 683.745 -494.124 829.398 -614.492 804.565C-734.684 779.768 -797.576 649.306 -871.058 551.013C-945.409 451.557 -1014.36 350.258 -1044.23 229.728Z" stroke="#B7C4FF" stroke-width="3" />
            <path opacity="0.38125" fill-rule="evenodd" clip-rule="evenodd" d="M-1023.11 230.265C-1052.71 90.0501 -1112.74 -82.3418 -1019.22 -190.922C-922.357 -303.377 -732.848 -229.688 -590.567 -271.927C-479.522 -304.894 -394.332 -426.273 -279.576 -410.502C-164.881 -394.738 -122.513 -242.392 -17.7124 -193.197C142.226 -118.119 420.85 -218.533 482.282 -52.8744C542.277 108.906 249.351 198.671 187.315 359.68C135.63 493.826 276.371 695.834 160.844 781.391C40.2453 870.705 -122.861 692.973 -272.748 700.395C-395.501 706.475 -494.275 848.768 -613.703 819.749C-732.957 790.772 -791.257 658.195 -861.264 557.397C-932.098 455.407 -997.469 351.763 -1023.11 230.265Z" stroke="#B7C4FF" stroke-width="3" />
            <path opacity="0.34" fill-rule="evenodd" clip-rule="evenodd" d="M-1002.03 231.537C-1026.72 90.3754 -1080.69 -84.0065 -983.439 -189.257C-882.713 -298.263 -695.892 -218.005 -552.224 -255.253C-440.096 -284.324 -350.722 -402.656 -236.586 -382.889C-122.511 -363.133 -85.4859 -209.401 17.5344 -156.578C174.755 -75.9647 456.714 -166.593 512.327 1.10842C566.639 164.884 270.759 244.372 203.142 403.118C146.806 535.378 280.412 742.174 161.97 823.648C38.3272 908.698 -118.477 725.382 -268.532 727.569C-391.422 729.361 -495.102 868.12 -613.444 834.951C-731.614 801.83 -785.252 667.299 -851.698 564.119C-918.93 459.719 -980.644 353.857 -1002.03 231.537Z" stroke="#B7C4FF" stroke-width="3" />
            <path opacity="0.29875" fill-rule="evenodd" clip-rule="evenodd" d="M-981.01 233.545C-1000.75 91.6076 -1048.61 -84.5518 -947.741 -186.344C-843.273 -291.768 -659.366 -205.039 -514.486 -237.251C-401.411 -262.391 -307.962 -377.532 -194.585 -353.794C-81.2692 -330.068 -49.6323 -175.137 51.4818 -118.751C205.793 -32.7005 490.743 -113.433 540.47 56.1069C589.033 221.678 290.56 290.791 217.443 447.081C156.526 577.294 282.834 788.628 161.62 865.918C35.0843 946.601 -115.227 757.924 -265.266 754.874C-388.144 752.375 -496.604 887.431 -613.716 850.152C-730.658 812.928 -779.569 676.606 -842.373 571.171C-905.921 464.488 -963.902 356.536 -981.01 233.545Z" stroke="#B7C4FF" stroke-width="3" />
            <path opacity="0.2575" fill-rule="evenodd" clip-rule="evenodd" d="M-960.069 236.285C-974.847 93.7451 -1016.53 -83.9771 -912.167 -182.187C-804.083 -283.901 -623.315 -190.807 -477.399 -217.942C-363.516 -239.121 -266.105 -350.931 -153.626 -323.25C-41.2069 -295.584 -14.9963 -139.644 84.0884 -79.7633C235.302 11.6206 522.897 -59.1186 566.677 112.054C609.432 279.22 308.728 337.874 230.202 491.516C164.777 619.525 283.632 835.137 159.795 908.15C30.5206 984.368 -113.114 790.56 -262.956 782.275C-385.672 775.49 -498.778 906.679 -614.519 865.335C-730.091 824.052 -774.213 686.107 -833.3 578.543C-893.086 469.708 -947.264 359.798 -960.069 236.285Z" stroke="#B7C4FF" stroke-width="3" />
            <path opacity="0.21625" fill-rule="evenodd" clip-rule="evenodd" d="M-939.237 239.754C-949.031 96.7855 -984.483 -82.283 -876.759 -176.791C-765.192 -274.671 -587.783 -175.325 -441.008 -197.351C-326.456 -214.543 -225.202 -322.885 -113.758 -291.295C-2.37258 -259.723 18.3799 -102.963 115.314 -39.6608C263.247 56.9447 553.135 -3.71451 590.914 168.882C627.809 337.437 325.242 385.562 241.401 536.37C171.549 662.017 282.807 881.646 156.497 950.292C24.6415 1021.95 -112.142 823.25 -261.603 809.741C-384.007 798.677 -501.624 925.838 -615.851 880.481C-729.911 835.19 -769.193 695.788 -824.49 586.228C-880.441 475.373 -930.751 363.639 -939.237 239.754Z" stroke="#B7C4FF" stroke-width="3" />
            <path opacity="0.175" fill-rule="evenodd" clip-rule="evenodd" d="M-918.539 243.949C-923.337 100.725 -952.518 -79.4717 -841.562 -170.162C-726.646 -264.089 -552.812 -158.612 -405.359 -175.503C-290.276 -188.686 -185.303 -293.428 -75.0286 -257.969C35.1866 -222.528 50.4556 -65.1394 145.122 1.50685C289.593 103.216 581.421 52.711 613.154 226.52C644.144 396.261 340.081 433.797 251.029 581.587C176.834 704.72 280.359 928.098 151.731 992.294C17.4544 1059.31 -112.311 855.954 -261.21 837.237C-383.153 821.908 -505.136 944.887 -617.71 895.571C-730.121 846.326 -764.514 705.639 -815.953 594.216C-868.001 481.475 -914.381 368.054 -918.539 243.949Z" stroke="#B7C4FF" stroke-width="3" />
            <path opacity="0.13375" fill-rule="evenodd" clip-rule="evenodd" d="M-897.999 248.863C-897.796 105.559 -920.67 -75.5464 -806.617 -162.31C-688.493 -252.169 -518.446 -140.689 -370.493 -152.424C-255.02 -161.582 -146.456 -262.597 -37.4864 -223.311C71.4248 -184.046 81.1917 -26.2196 173.474 43.6898C314.308 150.379 607.721 110.089 633.368 284.9C658.416 455.619 353.228 482.52 259.072 627.113C180.626 747.581 276.292 974.436 145.501 1034.1C8.96795 1096.39 -113.622 888.632 -261.776 864.73C-383.11 845.154 -509.311 963.802 -620.096 910.587C-730.719 857.449 -760.181 715.647 -807.7 602.497C-855.782 488.008 -898.175 373.038 -897.999 248.863Z" stroke="#B7C4FF" stroke-width="3" />
            <path opacity="0.0925" fill-rule="evenodd" clip-rule="evenodd" d="M-877.644 254.49C-872.44 111.281 -888.979 -70.5123 -771.968 -153.242C-650.78 -238.924 -484.727 -121.578 -336.454 -128.142C-220.732 -133.265 -108.709 -230.429 -1.17653 -187.364C106.298 -144.322 110.551 13.749 200.338 86.8365C337.362 198.376 632.002 168.351 651.533 343.95C670.607 515.439 364.667 531.673 265.522 672.891C182.919 790.549 270.61 1020.6 137.816 1075.67C-0.807429 1133.16 -116.072 921.245 -263.302 892.186C-383.879 868.388 -514.143 982.559 -623.003 925.51C-731.705 868.544 -756.2 725.801 -799.742 611.061C-843.799 494.964 -882.153 378.584 -877.644 254.49Z" stroke="#B7C4FF" stroke-width="3" />
            <path opacity="0.05125" fill-rule="evenodd" clip-rule="evenodd" d="M-857.497 260.825C-847.298 117.885 -857.484 -64.3751 -737.656 -142.971C-613.552 -224.372 -451.695 -101.302 -303.284 -102.687C-187.453 -103.768 -72.1073 -196.964 33.8566 -150.172C139.764 -103.405 138.497 54.718 225.678 130.894C358.727 247.148 654.235 227.424 667.626 403.598C680.704 575.648 374.383 581.195 270.37 718.867C183.711 833.57 263.32 1066.55 128.686 1116.95C-11.86 1169.56 -119.659 953.752 -265.785 919.573C-385.458 891.581 -519.627 1001.14 -626.43 940.323C-733.077 879.598 -752.576 736.087 -792.087 619.897C-832.065 502.333 -866.335 384.686 -857.497 260.825Z" stroke="#B7C4FF" stroke-width="3" />
            <path opacity="0.01" fill-rule="evenodd" clip-rule="evenodd" d="M-837.585 267.857C-822.404 125.359 -826.222 -57.1449 -703.724 -131.511C-576.855 -208.531 -419.392 -79.887 -271.022 -76.0919C-155.225 -73.1299 -36.6966 -162.244 67.5698 -111.782C171.78 -61.3476 164.996 96.6348 249.466 175.807C378.376 296.634 674.393 287.234 681.627 463.769C688.692 636.171 382.365 631.023 273.61 764.982C183.001 876.59 254.43 1112.2 118.119 1157.87C-24.1769 1205.55 -124.378 986.112 -269.223 946.854C-387.846 914.703 -525.757 1019.51 -630.372 955.005C-734.835 890.595 -749.314 746.49 -784.745 628.993C-820.596 510.105 -850.74 391.333 -837.585 267.857Z" stroke="#B7C4FF" stroke-width="3" />
            <path fill-rule="evenodd" clip-rule="evenodd" d="M2872.83 298.291C2968.57 191.659 3106.75 72.3776 3080.05 -68.4166C3052.4 -214.235 2851.43 -245.173 2749.33 -352.894C2669.65 -436.966 2656.56 -584.679 2549.29 -628.398C2442.08 -672.094 2329.22 -561.342 2213.86 -571.138C2037.81 -586.089 1846.72 -812.361 1710.69 -699.613C1577.84 -589.504 1786.64 -365.303 1759.86 -194.847C1737.55 -52.8303 1514.66 51.7426 1571.93 183.601C1631.72 321.248 1861.84 248.881 1987.93 330.253C2091.2 396.894 2105.59 569.51 2223.53 604.093C2341.3 638.626 2458.07 552.961 2569.1 500.67C2681.44 447.762 2789.87 390.688 2872.83 298.291Z" stroke="#B7C4FF" stroke-width="3" />
            <path opacity="0.95875" fill-rule="evenodd" clip-rule="evenodd" d="M2853.94 288.855C2945.9 178.947 3079.83 54.9156 3048.23 -84.8609C3015.51 -229.626 2813.58 -253.531 2707.79 -357.623C2625.22 -438.863 2606.98 -586.029 2498.26 -625.978C2389.59 -665.906 2280.66 -551.282 2165.03 -557.047C1988.56 -565.844 1789.69 -785.31 1657.68 -667.883C1528.76 -553.205 1745.25 -336.427 1724.44 -165.14C1707.1 -22.4315 1487.99 89.8565 1549.83 219.636C1614.38 355.113 1841.84 274.759 1970.69 351.68C2076.22 414.677 2096.63 586.686 2215.71 617.132C2334.6 647.533 2448.32 557.844 2557.46 501.711C2667.88 444.914 2774.26 384.092 2853.94 288.855Z" stroke="#B7C4FF" stroke-width="3" />
            <path opacity="0.9175" fill-rule="evenodd" clip-rule="evenodd" d="M2834.73 280.082C2922.8 167.032 3052.32 38.4015 3015.86 -100.187C2978.1 -243.721 2775.47 -260.566 2666.11 -360.902C2580.75 -439.211 2557.39 -585.65 2447.33 -621.781C2337.34 -657.892 2232.47 -539.536 2116.71 -541.262C1940.05 -543.895 1733.64 -756.287 1605.81 -634.324C1480.97 -515.217 1704.89 -306.126 1690.07 -134.218C1677.72 9.00938 1462.67 128.876 1529 256.418C1598.24 389.559 1822.75 301.316 1954.21 373.694C2061.88 432.969 2088.28 604.161 2208.34 630.433C2328.23 656.666 2438.75 563.063 2545.85 503.156C2654.23 442.54 2758.42 378.041 2834.73 280.082Z" stroke="#B7C4FF" stroke-width="3" />
            <path opacity="0.87625" fill-rule="evenodd" clip-rule="evenodd" d="M2815.22 271.984C2899.29 155.93 3024.25 22.8576 2982.98 -114.374C2940.23 -256.503 2737.13 -266.265 2624.33 -362.724C2536.3 -438.006 2507.84 -583.541 2396.59 -615.809C2285.4 -648.059 2184.73 -526.116 2068.98 -523.8C1892.33 -520.267 1678.64 -725.326 1555.14 -598.976C1434.53 -475.584 1665.62 -274.436 1656.8 -102.114C1649.46 41.4563 1438.72 168.755 1509.46 293.904C1583.31 424.548 1804.6 328.523 1938.51 396.269C2048.18 451.75 2080.54 621.917 2201.44 643.983C2322.17 666.016 2429.36 568.613 2534.31 505.004C2640.5 440.643 2742.38 372.548 2815.22 271.984Z" stroke="#B7C4FF" stroke-width="3" />
            <path opacity="0.835" fill-rule="evenodd" clip-rule="evenodd" d="M2795.45 264.573C2875.41 145.655 2995.65 8.30299 2949.61 -127.405C2901.93 -267.955 2698.62 -270.624 2582.52 -363.086C2491.91 -435.251 2458.4 -579.704 2346.09 -608.07C2233.84 -636.42 2137.49 -511.037 2021.89 -504.684C1845.47 -494.987 1624.75 -692.463 1505.73 -561.88C1389.5 -434.354 1627.47 -241.394 1624.68 -68.8698C1622.35 74.8698 1416.18 209.445 1491.25 332.05C1569.61 460.037 1787.41 356.348 1923.61 419.379C2035.14 470.999 2073.42 639.932 2195.02 657.765C2316.45 675.572 2420.17 574.488 2522.84 507.255C2626.72 439.226 2726.16 367.617 2795.45 264.573Z" stroke="#B7C4FF" stroke-width="3" />
            <path opacity="0.79375" fill-rule="evenodd" clip-rule="evenodd" d="M2775.43 257.856C2851.19 136.22 2966.56 -5.24476 2915.82 -139.263C2863.26 -278.064 2659.98 -273.635 2540.72 -361.99C2447.65 -430.948 2409.11 -574.144 2295.88 -598.572C2182.71 -622.988 2090.8 -494.319 1975.49 -483.935C1799.52 -468.088 1572.04 -657.741 1457.66 -523.084C1345.95 -391.579 1590.5 -207.041 1593.73 -34.5243C1596.42 109.209 1395.07 250.898 1474.37 370.808C1557.15 495.982 1771.21 384.755 1909.52 442.994C2022.79 490.69 2066.94 658.185 2189.09 671.763C2311.06 685.321 2411.19 580.679 2511.45 509.904C2612.9 438.291 2709.77 363.256 2775.43 257.856Z" stroke="#B7C4FF" stroke-width="3" />
            <path opacity="0.7525" fill-rule="evenodd" clip-rule="evenodd" d="M2755.18 251.842C2826.66 127.636 2937.02 -17.7692 2881.63 -149.935C2824.26 -286.817 2621.25 -275.297 2498.99 -359.436C2403.57 -425.103 2360.06 -566.867 2246.04 -587.329C2132.09 -607.78 2044.72 -475.982 1929.84 -461.58C1754.53 -439.601 1520.58 -621.199 1410.96 -482.632C1303.91 -347.309 1554.76 -171.419 1564 0.880231C1571.71 144.432 1375.43 293.061 1458.86 410.131C1545.96 532.34 1756.01 413.71 1896.26 467.087C2011.13 510.801 2061.1 676.653 2183.65 685.96C2306.02 695.253 2402.43 587.18 2500.16 512.949C2599.05 437.839 2693.25 359.469 2755.18 251.842Z" stroke="#B7C4FF" stroke-width="3" />
            <path opacity="0.71125" fill-rule="evenodd" clip-rule="evenodd" d="M2734.74 246.538C2801.84 119.913 2907.06 -29.2548 2847.09 -159.407C2784.98 -294.204 2582.5 -275.605 2457.37 -355.426C2359.71 -417.724 2311.28 -557.882 2196.62 -574.353C2082.03 -590.815 1999.31 -456.048 1885.01 -437.645C1710.57 -409.561 1470.42 -582.884 1365.7 -440.576C1263.44 -301.599 1520.27 -134.57 1535.53 37.3008C1548.24 180.497 1357.27 335.885 1444.73 449.972C1536.04 569.067 1741.82 443.178 1883.86 491.628C2000.18 531.307 2055.9 695.314 2178.7 700.338C2301.32 705.355 2393.91 593.982 2488.99 516.386C2585.19 437.871 2676.6 356.261 2734.74 246.538Z" stroke="#B7C4FF" stroke-width="3" />
            <path opacity="0.67" fill-rule="evenodd" clip-rule="evenodd" d="M2714.12 241.951C2776.76 113.061 2876.71 -39.6878 2812.24 -167.668C2745.46 -300.215 2543.75 -274.561 2415.92 -349.967C2316.15 -408.818 2262.85 -547.201 2147.69 -559.66C2032.59 -572.112 1954.62 -434.541 1841.03 -412.16C1667.68 -378.006 1421.63 -542.842 1321.94 -396.966C1224.59 -254.505 1487.1 -96.5411 1508.34 74.693C1526.04 217.358 1340.61 379.317 1432 490.281C1527.41 606.117 1728.67 473.124 1872.31 516.587C1989.95 552.182 2051.36 714.144 2174.27 714.879C2296.99 715.614 2385.63 601.078 2477.94 520.211C2571.34 438.387 2659.85 353.636 2714.12 241.951Z" stroke="#B7C4FF" stroke-width="3" />
            <path opacity="0.62875" fill-rule="evenodd" clip-rule="evenodd" d="M2693.36 238.086C2751.46 107.089 2846.02 -49.0555 2777.12 -174.707C2705.76 -304.843 2505.07 -272.166 2374.68 -343.064C2272.91 -398.397 2214.82 -534.836 2099.29 -543.268C1983.83 -551.696 1910.71 -411.487 1797.97 -385.157C1625.92 -344.973 1374.26 -501.121 1279.73 -351.855C1187.41 -206.084 1455.27 -57.3774 1482.48 113.011C1505.14 254.972 1325.48 423.303 1420.69 531.01C1520.08 643.446 1716.58 503.51 1861.65 541.933C1980.45 573.401 2047.48 733.121 2170.34 729.567C2293.01 726.018 2377.6 608.459 2467.03 524.419C2557.52 439.385 2643.02 351.597 2693.36 238.086Z" stroke="#B7C4FF" stroke-width="3" />
            <path opacity="0.5875" fill-rule="evenodd" clip-rule="evenodd" d="M2672.48 234.948C2725.97 102.003 2815.02 -57.3463 2741.78 -180.517C2665.92 -308.083 2466.49 -268.421 2333.71 -334.726C2230.07 -386.474 2167.25 -520.803 2051.5 -525.198C1935.81 -529.591 1867.63 -386.915 1755.88 -356.666C1585.34 -310.503 1328.38 -457.773 1239.12 -305.299C1151.94 -156.394 1424.83 -17.1267 1457.96 152.209C1485.57 293.292 1311.89 467.791 1410.8 572.109C1514.06 681.008 1705.55 534.299 1851.87 567.637C1971.71 594.939 2044.27 752.223 2166.92 744.383C2289.4 736.555 2369.83 616.115 2456.28 529.005C2543.75 440.865 2626.12 350.147 2672.48 234.948Z" stroke="#B7C4FF" stroke-width="3" />
            <path opacity="0.54625" fill-rule="evenodd" clip-rule="evenodd" d="M2651.5 232.541C2700.32 97.8096 2783.75 -64.5503 2706.25 -185.09C2625.99 -309.93 2428.07 -263.333 2293.05 -324.963C2187.67 -373.063 2120.21 -505.117 2004.37 -505.47C1888.6 -505.823 1825.44 -360.855 1714.81 -326.724C1545.98 -274.637 1284.04 -412.85 1200.15 -257.354C1118.23 -105.497 1395.81 24.1619 1434.83 192.238C1467.35 332.271 1299.86 512.725 1402.36 613.528C1509.35 718.757 1695.61 565.455 1843 593.665C1963.71 616.769 2041.72 771.424 2164.03 759.309C2286.15 747.211 2362.34 624.038 2445.69 533.964C2530.03 442.825 2609.19 349.287 2651.5 232.541Z" stroke="#B7C4FF" stroke-width="3" />
            <path opacity="0.505" fill-rule="evenodd" clip-rule="evenodd" d="M2630.44 230.867C2674.53 94.5143 2752.25 -70.6586 2670.59 -188.42C2586.02 -310.383 2389.84 -256.907 2252.76 -313.787C2145.77 -358.181 2073.73 -487.8 1957.96 -484.11C1842.24 -480.422 1784.18 -333.338 1674.81 -295.367C1507.9 -237.42 1241.3 -366.407 1162.89 -208.078C1086.31 -53.4543 1368.25 66.4381 1413.12 233.05C1450.5 371.863 1289.41 558.053 1395.36 655.217C1505.96 756.647 1686.76 596.938 1835.05 619.988C1956.49 638.865 2039.85 790.703 2161.66 774.327C2283.29 757.975 2355.13 632.217 2435.28 539.289C2516.39 445.262 2592.24 349.019 2630.44 230.867Z" stroke="#B7C4FF" stroke-width="3" />
            <path opacity="0.46375" fill-rule="evenodd" clip-rule="evenodd" d="M2609.34 229.929C2648.65 92.1208 2720.56 -75.6638 2634.84 -190.503C2546.06 -309.441 2351.87 -249.151 2212.88 -301.212C2104.41 -341.845 2027.89 -468.871 1912.32 -461.143C1796.8 -453.419 1743.91 -304.398 1635.93 -262.634C1471.15 -198.896 1200.2 -318.501 1127.37 -157.531C1056.23 -0.329574 1342.18 109.65 1392.84 274.594C1435.04 412.019 1280.55 603.717 1389.83 697.124C1503.9 794.633 1679.01 628.712 1828.01 646.572C1950.04 661.199 2038.65 810.036 2159.81 789.419C2280.8 768.831 2348.2 640.644 2425.07 544.975C2502.85 448.174 2575.29 349.343 2609.34 229.929Z" stroke="#B7C4FF" stroke-width="3" />
            <path opacity="0.4225" fill-rule="evenodd" clip-rule="evenodd" d="M2588.23 229.728C2622.7 90.6322 2688.71 -79.5598 2599.03 -191.338C2506.15 -307.105 2314.19 -240.074 2173.47 -287.253C2063.64 -324.075 1982.74 -448.354 1867.5 -436.597C1752.33 -424.846 1704.67 -274.071 1598.22 -228.563C1435.76 -159.113 1160.81 -269.189 1093.63 -105.776C1028.02 53.8126 1317.64 153.746 1374.02 316.822C1420.99 452.69 1273.28 649.663 1385.76 739.199C1503.16 832.668 1672.37 660.736 1821.91 673.385C1944.38 683.745 2038.12 829.398 2158.49 804.565C2278.68 779.768 2341.58 649.306 2415.06 551.013C2489.41 451.557 2558.36 350.258 2588.23 229.728Z" stroke="#B7C4FF" stroke-width="3" />
            <path opacity="0.38125" fill-rule="evenodd" clip-rule="evenodd" d="M2567.11 230.265C2596.71 90.0501 2656.74 -82.3418 2563.22 -190.922C2466.36 -303.377 2276.85 -229.688 2134.57 -271.927C2023.52 -304.894 1938.33 -426.273 1823.58 -410.502C1708.88 -394.738 1666.51 -242.392 1561.71 -193.197C1401.77 -118.119 1123.15 -218.533 1061.72 -52.8744C1001.72 108.906 1294.65 198.671 1356.68 359.68C1408.37 493.826 1267.63 695.834 1383.16 781.391C1503.75 870.705 1666.86 692.973 1816.75 700.395C1939.5 706.475 2038.28 848.768 2157.7 819.749C2276.96 790.772 2335.26 658.195 2405.26 557.397C2476.1 455.407 2541.47 351.763 2567.11 230.265Z" stroke="#B7C4FF" stroke-width="3" />
            <path opacity="0.34" fill-rule="evenodd" clip-rule="evenodd" d="M2546.03 231.537C2570.72 90.3754 2624.69 -84.0065 2527.44 -189.257C2426.71 -298.263 2239.89 -218.005 2096.22 -255.253C1984.1 -284.324 1894.72 -402.656 1780.59 -382.889C1666.51 -363.133 1629.49 -209.401 1526.47 -156.578C1369.25 -75.9647 1087.29 -166.593 1031.67 1.10842C977.361 164.884 1273.24 244.372 1340.86 403.118C1397.19 535.378 1263.59 742.174 1382.03 823.648C1505.67 908.698 1662.48 725.382 1812.53 727.569C1935.42 729.361 2039.1 868.12 2157.44 834.951C2275.61 801.83 2329.25 667.299 2395.7 564.119C2462.93 459.719 2524.64 353.857 2546.03 231.537Z" stroke="#B7C4FF" stroke-width="3" />
            <path opacity="0.29875" fill-rule="evenodd" clip-rule="evenodd" d="M2525.01 233.545C2544.75 91.6076 2592.61 -84.5518 2491.74 -186.344C2387.27 -291.768 2203.37 -205.039 2058.49 -237.251C1945.41 -262.391 1851.96 -377.532 1738.59 -353.794C1625.27 -330.068 1593.63 -175.137 1492.52 -118.751C1338.21 -32.7005 1053.26 -113.433 1003.53 56.1069C954.967 221.678 1253.44 290.791 1326.56 447.081C1387.47 577.294 1261.17 788.628 1382.38 865.918C1508.92 946.601 1659.23 757.924 1809.27 754.874C1932.14 752.375 2040.6 887.431 2157.72 850.152C2274.66 812.928 2323.57 676.606 2386.37 571.171C2449.92 464.488 2507.9 356.536 2525.01 233.545Z" stroke="#B7C4FF" stroke-width="3" />
            <path opacity="0.2575" fill-rule="evenodd" clip-rule="evenodd" d="M2504.07 236.285C2518.85 93.7451 2560.53 -83.9771 2456.17 -182.187C2348.08 -283.901 2167.32 -190.807 2021.4 -217.942C1907.52 -239.121 1810.11 -350.931 1697.63 -323.25C1585.21 -295.584 1559 -139.644 1459.91 -79.7633C1308.7 11.6206 1021.1 -59.1186 977.324 112.054C934.569 279.22 1235.27 337.874 1313.8 491.516C1379.22 619.525 1260.37 835.137 1384.21 908.15C1513.48 984.368 1657.11 790.56 1806.96 782.275C1929.67 775.49 2042.78 906.679 2158.52 865.335C2274.09 824.052 2318.21 686.107 2377.3 578.543C2437.09 469.708 2491.26 359.798 2504.07 236.285Z" stroke="#B7C4FF" stroke-width="3" />
            <path opacity="0.21625" fill-rule="evenodd" clip-rule="evenodd" d="M2483.24 239.754C2493.03 96.7855 2528.48 -82.283 2420.76 -176.791C2309.19 -274.671 2131.78 -175.325 1985.01 -197.351C1870.46 -214.543 1769.2 -322.885 1657.76 -291.295C1546.37 -259.723 1525.62 -102.963 1428.69 -39.6608C1280.75 56.9447 990.866 -3.71451 953.086 168.882C916.191 337.437 1218.76 385.562 1302.6 536.37C1372.45 662.017 1261.19 881.646 1387.5 950.292C1519.36 1021.95 1656.14 823.25 1805.6 809.741C1928.01 798.677 2045.62 925.838 2159.85 880.481C2273.91 835.19 2313.19 695.788 2368.49 586.228C2424.44 475.373 2474.75 363.639 2483.24 239.754Z" stroke="#B7C4FF" stroke-width="3" />
            <path opacity="0.175" fill-rule="evenodd" clip-rule="evenodd" d="M2462.54 243.949C2467.34 100.725 2496.52 -79.4717 2385.56 -170.162C2270.65 -264.089 2096.81 -158.612 1949.36 -175.503C1834.28 -188.686 1729.3 -293.428 1619.03 -257.969C1508.81 -222.528 1493.54 -65.1394 1398.88 1.50685C1254.41 103.216 962.579 52.711 930.846 226.52C899.856 396.261 1203.92 433.797 1292.97 581.587C1367.17 704.72 1263.64 928.098 1392.27 992.294C1526.55 1059.31 1656.31 855.954 1805.21 837.237C1927.15 821.908 2049.14 944.887 2161.71 895.571C2274.12 846.326 2308.51 705.639 2359.95 594.216C2412 481.475 2458.38 368.054 2462.54 243.949Z" stroke="#B7C4FF" stroke-width="3" />
            <path opacity="0.13375" fill-rule="evenodd" clip-rule="evenodd" d="M2442 248.863C2441.8 105.559 2464.67 -75.5464 2350.62 -162.31C2232.49 -252.169 2062.45 -140.689 1914.49 -152.424C1799.02 -161.582 1690.46 -262.597 1581.49 -223.311C1472.58 -184.046 1462.81 -26.2196 1370.53 43.6898C1229.69 150.379 936.28 110.089 910.632 284.9C885.585 455.619 1190.77 482.52 1284.93 627.113C1363.37 747.581 1267.71 974.436 1398.5 1034.1C1535.03 1096.39 1657.62 888.632 1805.78 864.73C1927.11 845.154 2053.31 963.802 2164.1 910.587C2274.72 857.449 2304.18 715.647 2351.7 602.497C2399.78 488.008 2442.18 373.038 2442 248.863Z" stroke="#B7C4FF" stroke-width="3" />
            <path opacity="0.0925" fill-rule="evenodd" clip-rule="evenodd" d="M2421.64 254.49C2416.44 111.281 2432.98 -70.5123 2315.97 -153.242C2194.78 -238.924 2028.73 -121.578 1880.45 -128.142C1764.73 -133.265 1652.71 -230.429 1545.18 -187.364C1437.7 -144.322 1433.45 13.749 1343.66 86.8365C1206.64 198.376 911.998 168.351 892.467 343.95C873.393 515.439 1179.33 531.673 1278.48 672.891C1361.08 790.549 1273.39 1020.6 1406.18 1075.67C1544.81 1133.16 1660.07 921.245 1807.3 892.186C1927.88 868.388 2058.14 982.559 2167 925.51C2275.7 868.544 2300.2 725.801 2343.74 611.061C2387.8 494.964 2426.15 378.584 2421.64 254.49Z" stroke="#B7C4FF" stroke-width="3" />
            <path opacity="0.05125" fill-rule="evenodd" clip-rule="evenodd" d="M2401.5 260.825C2391.3 117.885 2401.48 -64.3751 2281.66 -142.971C2157.55 -224.372 1995.7 -101.302 1847.28 -102.687C1731.45 -103.768 1616.11 -196.964 1510.14 -150.172C1404.24 -103.405 1405.5 54.718 1318.32 130.894C1185.27 247.148 889.765 227.424 876.374 403.598C863.296 575.648 1169.62 581.195 1273.63 718.867C1360.29 833.57 1280.68 1066.55 1415.31 1116.95C1555.86 1169.56 1663.66 953.752 1809.79 919.573C1929.46 891.581 2063.63 1001.14 2170.43 940.323C2277.08 879.598 2296.58 736.087 2336.09 619.897C2376.07 502.333 2410.34 384.686 2401.5 260.825Z" stroke="#B7C4FF" stroke-width="3" />
            <path opacity="0.01" fill-rule="evenodd" clip-rule="evenodd" d="M2381.59 267.857C2366.4 125.359 2370.22 -57.1449 2247.72 -131.511C2120.85 -208.531 1963.39 -79.887 1815.02 -76.0919C1699.23 -73.1299 1580.7 -162.244 1476.43 -111.782C1372.22 -61.3476 1379 96.6348 1294.53 175.807C1165.62 296.634 869.608 287.234 862.373 463.769C855.308 636.171 1161.64 631.023 1270.39 764.982C1361 876.59 1289.57 1112.2 1425.88 1157.87C1568.18 1205.55 1668.38 986.112 1813.22 946.854C1931.85 914.703 2069.76 1019.51 2174.37 955.005C2278.84 890.595 2293.31 746.49 2328.75 628.993C2364.6 510.105 2394.74 391.333 2381.59 267.857Z" stroke="#B7C4FF" stroke-width="3" />
        </g>
    </svg>